<svg width="16" height="16" viewBox="0 0 16 16" shape-rendering="crispEdges" xmlns="http://www.w3.org/2000/svg"><rect x="7" y="0" width="2" height="1" fill="#000000"/><rect x="1" y="1" width="1" height="1" fill="#000000"/><rect x="6" y="1" width="4" height="1" fill="#c0c0c0"/><rect x="14" y="1" width="1" height="1" fill="#000000"/><rect x="2" y="2" width="1" height="1" fill="#000000"/><rect x="4" y="2" width="1" height="1" fill="#c0c0c0"/><rect x="5" y="2" width="3" height="1" fill="#f2f2f2"/><rect x="8" y="2" width="2" height="1" fill="#c0c0c0"/><rect x="10" y="2" width="2" height="1" fill="#808080"/><rect x="13" y="2" width="1" height="1" fill="#000000"/><rect x="3" y="3" width="1" height="1" fill="#c0c0c0"/><rect x="4" y="3" width="4" height="1" fill="#f2f2f2"/><rect x="8" y="3" width="3" height="1" fill="#c0c0c0"/><rect x="11" y="3" width="2" height="1" fill="#808080"/><rect x="2" y="4" width="1" height="1" fill="#c0c0c0"/><rect x="3" y="4" width="5" height="1" fill="#f2f2f2"/><rect x="8" y="4" width="2" height="1" fill="#c0c0c0"/><rect x="10" y="4" width="1" height="1" fill="#808080"/><rect x="11" y="4" width="3" height="1" fill="#000000"/><rect x="2" y="5" width="1" height="1" fill="#c0c0c0"/><rect x="3" y="5" width="4" height="1" fill="#f2f2f2"/><rect x="7" y="5" width="2" height="1" fill="#c0c0c0"/><rect x="9" y="5" width="1" height="1" fill="#808080"/><rect x="10" y="5" width="4" height="1" fill="#000000"/><rect x="1" y="6" width="2" height="1" fill="#c0c0c0"/><rect x="3" y="6" width="3" height="1" fill="#f2f2f2"/><rect x="6" y="6" width="2" height="1" fill="#c0c0c0"/><rect x="8" y="6" width="1" height="1" fill="#808080"/><rect x="9" y="6" width="6" height="1" fill="#000000"/><rect x="0" y="7" width="1" height="1" fill="#000000"/><rect x="1" y="7" width="2" height="1" fill="#c0c0c0"/><rect x="3" y="7" width="2" height="1" fill="#f2f2f2"/><rect x="5" y="7" width="1" height="1" fill="#808080"/><rect x="6" y="7" width="2" height="1" fill="#000000"/><rect x="8" y="7" width="1" height="1" fill="#f2f2f2"/><rect x="9" y="7" width="7" height="1" fill="#000000"/><rect x="0" y="8" width="1" height="1" fill="#000000"/><rect x="1" y="8" width="4" height="1" fill="#c0c0c0"/><rect x="5" y="8" width="1" height="1" fill="#808080"/><rect x="6" y="8" width="10" height="1" fill="#000000"/><rect x="1" y="9" width="2" height="1" fill="#808080"/><rect x="3" y="9" width="2" height="1" fill="#c0c0c0"/><rect x="5" y="9" width="1" height="1" fill="#808080"/><rect x="6" y="9" width="9" height="1" fill="#000000"/><rect x="2" y="10" width="5" height="1" fill="#808080"/><rect x="7" y="10" width="7" height="1" fill="#000000"/><rect x="2" y="11" width="4" height="1" fill="#808080"/><rect x="6" y="11" width="8" height="1" fill="#000000"/><rect x="3" y="12" width="2" height="1" fill="#808080"/><rect x="5" y="12" width="8" height="1" fill="#000000"/><rect x="2" y="13" width="1" height="1" fill="#000000"/><rect x="4" y="13" width="8" height="1" fill="#000000"/><rect x="13" y="13" width="1" height="1" fill="#000000"/><rect x="1" y="14" width="1" height="1" fill="#000000"/><rect x="6" y="14" width="4" height="1" fill="#000000"/><rect x="14" y="14" width="1" height="1" fill="#000000"/><rect x="7" y="15" width="2" height="1" fill="#000000"/></svg>
